<?xml version="1.0" encoding="utf-8"?>
<!-- Generator: Adobe Illustrator 25.4.1, SVG Export Plug-In . SVG Version: 6.00 Build 0)  -->
<svg version="1.1" id="Capa_1" xmlns="http://www.w3.org/2000/svg" xmlns:xlink="http://www.w3.org/1999/xlink" x="0px" y="0px"
	 viewBox="0 0 234 353" style="enable-background:new 0 0 234 353;" xml:space="preserve">
<style type="text/css">
	.st0{fill:#1D1D1B;stroke:#1D1D1B;stroke-linecap:round;stroke-miterlimit:10;}
	.st1{fill:#B41E17;stroke:#BE1622;stroke-linecap:round;stroke-miterlimit:10;}
	
		.st2{fill:url(#Paladar-2_00000141438219062376236470000008981364077500893358_);stroke:url(#Paladar-2_00000180335496666354421050000015108943128430230414_);stroke-width:0.75;stroke-miterlimit:10;}
	.st3{opacity:0.42;fill:#E6007E;stroke:#E6007E;stroke-linecap:round;stroke-miterlimit:10;enable-background:new    ;}
	.st4{fill:#F39200;stroke:#F39200;stroke-linecap:round;stroke-miterlimit:10;}
	.st5{opacity:0.36;fill:#EA5B0C;enable-background:new    ;}
	.st6{fill:#FFFFFF;stroke:#FFFFFF;stroke-miterlimit:10;}
	.st7{fill:#FFFFFF;stroke:#FFFFFF;stroke-linecap:round;stroke-miterlimit:10;}
	.st8{opacity:0.77;fill:#FFFFFF;stroke:#FFFFFF;stroke-linecap:round;stroke-miterlimit:10;enable-background:new    ;}
	.st9{opacity:0.7;fill:#FFFFFF;stroke:#FFFFFF;stroke-linecap:round;stroke-miterlimit:10;enable-background:new    ;}
</style>
<g id="ink">
	<path id="Background-2" class="st0" d="M16.5,200.6l-3.1-28.4C11,165.6,0.8,134.8,9.9,96c0.1-0.7,0.3-1.3,0.4-2
		c1.2-6,10.8-47.2,53.4-67c0,0,30.3-12.5,68.8-4c8.5-3.8,20.7-17.2,34.1-16c3.3,0.9,42.9,5.9,54.2,76.4c0,0,5.9,31.7-9,78.3
		c0,0-9,25.4-3.4,42.5c0.1,0.4,0.3,0.7,0.4,1c1.1,5,12.6,27.7,15.8,41.4c0,0,9.8,35.5-14.2,65.1c0,0-28.5,40.3-94.7,33.9
		c-1.1-0.1-2.2-0.3-3.2-0.6c-13.5-3.1-55,0-79-49.8c0,0-12.6-25.8-13.8-62L16.5,200.6z"/>
	<path id="Labios" class="st1" d="M19.2,198.4l-1-7.4c-3.6-26.6-11.3-45.4-5.8-87.6c0,0,9.6-56.4,55.1-73.4c0,0,23.9-12.9,64.9-4.5
		c8.5-3.8,20.4-17.7,32.7-15.7c3.3,0.9,38.1,7,49.3,73.3c0,0,5.7,39.1-9.3,85.7c0,0-6.2,18.9,0,34.3c0,0,15.2,32.5,14.3,47
		c0,0,4.4,34.6-16.1,58.4c0,0-25.3,35.7-88.5,33.4c0,0-36.3,6.1-64.2-30.5c-2.5-3.2-8.6-11.3-10.9-16.1c-0.5-1-1-2-1.5-2.9
		c-2.8-5.2-14-28.2-15.7-59.7L19.2,198.4z"/>
	<g id="inner">
		<path class="st0" d="M31.1,167.5c2.5-9.4,9.6-36.4,19.4-77.5c0.5-2.2,1.3-4.3,2.4-6.2c2.9-5.3,9.4-15.9,18.4-22.9
			c5.6-4.4,12.8-6.1,19.8-4.8c17.1,3,34.7,2.1,51.5-2.6c9.6-2.6,12.6-10.4,26.2,8.6c9.6,13.1,16.1,28.3,19,44.3
			c0.1,0.7,0.3,1.5,0.5,2.2c1.4,5,7.8,30.3,0.8,62.6c0,0-1.3,7.7-0.2,27.2c0.2,2.7,0.8,5.5,1.8,8c1.5,3.5,3.2,11.1,1.5,25.5
			c-0.4,3.1-1.3,6.2-2.8,9c-2,3.8-5.8,11.6-12.6,27.2c-2,4.7-5.5,8.7-9.8,11.4c-6.2,3.7-16.8,7.8-34.4,9.1c0,0-43.7,1.8-52.9-3.5
			c-0.6-0.3-1.2-0.6-1.9-0.9c-3.9-1.5-17.2-7.8-26.5-29.2c-0.4-1-0.8-2.1-1.1-3.1c-1.8-6.6-9.1-32-14.1-41.4c-1.1-2-1.9-4.2-2.4-6.5
			c-1.9-9.5-3-19.2-3.4-28.8C30.1,172.5,30.4,169.9,31.1,167.5z"/>
	</g>
	<g id="Paladar">
		
			<linearGradient id="Paladar-2_00000137832384994298449140000008375360248045790644_" gradientUnits="userSpaceOnUse" x1="37.7974" y1="193.6174" x2="187.2188" y2="193.6174" gradientTransform="matrix(1 0 0 -1 0 356)">
			<stop  offset="0" style="stop-color:#E74B94"/>
			<stop  offset="1" style="stop-color:#F6BDD8"/>
		</linearGradient>
		
			<linearGradient id="Paladar-2_00000103252597732030526240000013861753039376597122_" gradientUnits="userSpaceOnUse" x1="37.4224" y1="193.6174" x2="187.5938" y2="193.6174" gradientTransform="matrix(1 0 0 -1 0 356)">
			<stop  offset="0" style="stop-color:#E74B94"/>
			<stop  offset="1" style="stop-color:#F6BDD8"/>
		</linearGradient>
		
			<path id="Paladar-2" style="fill:url(#Paladar-2_00000137832384994298449140000008375360248045790644_);stroke:url(#Paladar-2_00000103252597732030526240000013861753039376597122_);stroke-width:0.75;stroke-miterlimit:10;" d="
			M38.4,201.2c-3.4-9,8.4-42.2,40.2-56.5c3-1.3,5.8-3.1,8.3-5.2c7.5-6.1,27.4-19,63.3-19.7c3.5-0.1,7-0.6,10.4-1.8
			c5.2-1.8,12-5.3,17.3-8.3c2.1-1.2,4.7-0.4,5.9,1.6c0.3,0.5,0.5,1.1,0.5,1.7c1.9,16.3,4.9,14.8,1.2,56.5c-0.2,2.1-1,7.6-1,9.7v12.2
			c0,0.2,0.2,1.3,0.2,2.8c0,0.7,0.1,1.3,0.3,2l-0.5,2.5l-2.3,0.3l-2,0.7l-1.6,0.8L178,201c-0.5,0.4-0.4,0.3-0.5,0.4l-0.5,0.5
			l-0.6,0.6l-1.3,1.2l-1.6,1.9c-1.1,2.2-1.6,2.2-3.6,0.9l-4.1-1.4c-0.2-0.1-7.3-1.5-7.5-1.5c-1.7-0.7-12.5,0.3-16.6,0.3
			c-0.6,0-1.3,0-1.9,0.1c-1.8,0.2-5.3,0.5-5.5,0.5l-23.6,5.8c-1.1,0.4-2.2,0.7-3.3,0.8c-3.2-0.7-12.7-1.7-22.8-1
			c-0.8,0.1-5.2,0.7-5.3,0.7c-18.9,0-16.9-2-27,4.6c-0.8,0.5-2.7-0.7-2.7-0.7l0,0c-0.3-0.9-0.5-1.9-0.7-2.9l-0.1-2.2
			c0-1.1-0.4-2.2-0.9-3.1c-0.4-0.6-0.9-1.2-1.5-1.6l-1.6-1.1c-0.9-0.6-1.8-1.1-2.9-1.3C40.4,202.1,38.5,201.5,38.4,201.2z"/>
		<path id="Garganta" class="st0" d="M60.5,213.8c0,0-16.7-52.4,21.5-47.5c0,0,23,5.2,12,22.1c0,0-5.3,5.9,2.9,9.4
			c0,0,7.8,3,8.4-8.2c0.1-1.5-0.1-3.1-0.5-4.6c-1.1-4.3-3.4-15.3,1.2-17.3c0,0,13.4-5.6,22.1,16.2c3.1,8.3,2.5,17.5-1.7,25.3
			l-17.3,4.8C109.1,214,84.6,209.8,60.5,213.8z"/>
		<g id="Details">
			<path class="st3" d="M95,172.1c0,0,8.2,5.3,0.9,17.3c0,0-3.9,5.4,2.2,6.8c0,0,0.1,0,0.1,0c2,0.7,0.9-1.4,0.6-2
				c-0.2-0.8-0.3-1.7-0.3-2.5c-0.1-0.8,0-1.6,0.1-2.5C99,186.2,102,178.8,95,172.1z"/>
		</g>
	</g>
	<g id="Lengua">
		<path class="st4" d="M51.7,220.2c2.6-1.7,35-21.7,75.3,10.1c-4-6.8-9.9-12.3-17-15.8c0,0,42.9-16.8,62.3-2.2
			c0.6,0.5,0.7,1.3,0.4,1.9l-1,1.4c-0.4,0.8-0.5,1.7-0.2,2.6l1.7,5.5c0.3,0.8,0.1,1.7-0.3,2.5l-0.2,0.3c-0.5,0.8-0.6,1.7-0.4,2.6
			l1.1,4.2c0.3,0.9,0.1,1.9-0.4,2.7l-0.6,1.1c-0.4,0.6-0.7,1.4-0.8,2.1l-0.6,2.8c-0.2,0.8-0.7,1.4-1.4,1.8l-6.9,2.6
			c-1.2,0.6-2.2,1.5-3.1,2.6c-0.2,0.2-0.3,0.5-0.5,0.7l-0.6,1.2c-0.3,0.6-0.9,1-1.6,1.1l-8,0.7c-1.7,0.3-3.4,0.7-5,1.2l-6.4,3.1
			c-1.6,0.6-1.8,0.9-3.5,0.6l-1.6-0.8c-0.7-0.3-1.4-0.5-2.2-0.6l-9.1-0.4c-0.8,0-1.5,0-2.2,0.1l-7.9,1c-0.6,0.1-1.2,0.2-1.8,0.3
			l-3.4,0.8c-1,0.2-2,0-2.8-0.5l-4.7-3.2c-1-0.6-2-1.1-3.1-1.4l-5.7-1.5c-0.9-0.2-1.9-0.2-2.9,0l-2.6,0.6l-11.7-5.1
			c-0.8-0.3-1.6-0.5-2.4-0.5h-0.5c-0.7,0-1.4-0.2-2-0.5l-7.5-4.9c-0.7-0.4-1.1-1.1-1.2-1.9l-0.5-3.7c-0.2-1.3-0.7-2.5-1.6-3.4
			l-2.9-3.2c-0.2-0.3-0.4-0.6-0.5-1l-1.5-7.3C51.6,220.4,51.6,220.2,51.7,220.2z"/>
		<g id="Reflejo">
			<path class="st5" d="M57.3,222.6c0,0,35.2-17.9,73.8,14.7l7.6,6.5l-11.8,9.2c0,0-20.2-1.5-21.5,1.7S92.6,248,92.6,248H85
				l-12.8-6.7l-8.4-5.3l-5.3-5.7L57.3,222.6z"/>
			<path class="st5" d="M116.4,214.4c0,0,27.7-11.3,53.2,2.2l-0.3,10.3l1.1,6c0,0-2.6,5.7-4,8.9l-10.9,5.4l-6.3-8.5l-12.8-6.7
				l-8.5-5.4l-5.3-5.7L116.4,214.4z"/>
		</g>
	</g>
	<g id="Dientes">
		<path id="top" class="st6" d="M56.8,84.8l4.3-1.9c1.6-0.3,3.3-0.2,4.9,0.2l10.5,1.5c3.3,0.8,6.8,0.8,10.1-0.1l3.2-0.9
			c0,0,17.5,8.8,28.5,6.1c0,0,5.3-0.6,8.5-2.7c1.9-1.3,4.3-1.5,6.3-0.5l2.6,1.4c0,0,10,3.8,19,0.5c1.6-0.6,3.4-0.5,4.9,0.3
			c1.8,1,3.8,1.6,5.8,1.5c2.7,0,4,1.1,4.6,2.1c0.7,1.2,1.7,2.2,2.9,2.9l2.1,1.2l3.5,5l1.6,1.3c1.2,1.6,1.6,1.6,3.6,1.8l0.9-0.5
			l-1.6-6L177.2,85l-5.8-11.1l-3.6-5c-1.4-1.9-2.6-3.8-3.5-6c-1.4-2.8-3.5-5.3-6.1-7c-0.6-0.4-1.2-0.7-1.8-0.9l0,0
			c-1.4-0.4-2.9-0.3-4.2,0.3c-6.7,2.8-29.4,11-55,5.9c-5.7-1.2-11.6-0.9-17.1,0.9c-2.2,0.7-4.4,1.7-6.4,2.9
			c-2.6,1.6-4.9,3.7-6.7,6.2L56.8,84.8z"/>
		<path class="st7" d="M36.1,208.5c0,0,6.2,11.2,17.6,44.1c4.6,13.5,14.9,24.2,28.2,29.3c6.9,2.6,13.7,2.4,24,2.5c0.6,0,1.1,0,1.7,0
			c8-0.3,16-0.1,24,0.5c4,0.2,7.9,0.1,11.9-0.4c0.5-0.1,4.8-0.5,5.4-0.7c4-0.9,6.2-1,9.9-2.7l2-0.9c6.6-2.9,11.1-8.3,14.3-14.8
			c0.9-1.9,3.3-7.1,4.6-9.9c0.4-1.1,0.7-2.3,1-3.5c0.5-1.8,1.4-3.4,2.6-4.7l0.7-0.7l1.6-3.2l2.3-6.3l1.4-5.7l0.9-7.8v-6.7v-3.1
			l-0.7-3.8l-1.5-3.6l-8.2,0.9l-3,2.8l0.8,2.4l2.7,1.6l-5.5,1.7l-0.4,1.8l1.5,6.5l-1.2,3.8l1.2,5.6v2.6l-1.4,2.5l-1,3.8l0.4,2.8
			l-7.6,2.9l-2.8,1.5l-3.3,4.1l-0.9,4.2l-4-2.5l-6.4,0.8c-0.7,0.1-1.3,0.2-1.9,0.4l-4.9,1.5l-5.2,2.2l-2.1,4.5l-4.1-4.3l-11.9-0.5
			l-5.4,0.1l-6.8,0.7l-4,4l-1.8-4.2l-4.5-3.1l-4.6-2.7H85l-3.5,2.2v-3.1c-3.7-2-7.7-3.5-11.8-4.5l-3.6,1.2V248l-5.1-2.4l-5.3-3.4
			l-1.5-7.2l-1.6-2.9l-3.3-2.8L50,226l-1.8-4.4l-2.5-3.1c0,0-0.2-4.8-0.2-5.4s-1.9-3.1-1.9-3.1l-2.9-1.6L36.1,208.5z"/>
	</g>
	<g id="hightlight">
		<path id="Bottom" class="st8" d="M36.5,277l21.1,17.6c1,1.8,2.4,3.3,4,4.5l4.6,2.8c1.4,1.1,4.9,2.2,6.6,2.9
			c9.5,4.3,27.6,10.5,32.1,8.9c0,0,41.5,3.3,50.2-0.3c0,0,23.7-5.5,26.5-7.1c0.9-0.5,14-11.1,14.4-12c2.2-4,9.7-10.5,13.9-21.3
			c0,0,6.9-23.2-3.3-57.1c0,0,17.6,36.9,2.2,76.3c0,0-0.9,8.5-26.5,29.2c0,0-25,20.9-76.4,15.2c-0.9-0.1-1.9-0.2-2.8-0.3
			c-4.2-0.3-26.8-6-38.6-16.9c-1.9-1.7-3.8-3.4-5.9-4.9C53.8,310.8,42.8,294.2,36.5,277z"/>
		<path id="Top-2" class="st9" d="M56.8,44.4c0,0,21.2-21.4,67.3-12.7c6.4,1.2,13.9-2.2,19.8-5c2.8-1.6,5.5-3.3,8.1-5.3
			c3.6-2.7,7.9-4.1,12.4-4c7,0.2,23.4,10,28.7,18.6c0,0-19.5-18.4-33.1-9c0,0-16,11.3-29,13c-2.6,0.3-5.2,0.1-7.8-0.7
			C115.4,37.2,89.4,31.8,56.8,44.4z"/>
	</g>
</g>
</svg>
